<?xml version="1.0" encoding="utf-8"?>
<!-- Generator: Adobe Illustrator 23.0.1, SVG Export Plug-In . SVG Version: 6.00 Build 0)  -->
<svg version="1.1" xmlns="http://www.w3.org/2000/svg" xmlns:xlink="http://www.w3.org/1999/xlink" x="0px" y="0px"
	 viewBox="0 0 64 64" style="enable-background:new 0 0 64 64;" xml:space="preserve">
<style type="text/css">
	.st0{display:none;}
	.st1{display:inline;fill:#606060;}
	.st2{fill:#262324;}
	.st3{display:inline;}
	.st4{fill:#FFFFFF;}
</style>
<g id="GIFT_1_" class="st0">
	<path class="st1" d="M47,20.7h-3.4c1.8-1.8,2.2-4.7,0.8-6.9c-1-1.6-2.8-2.6-4.7-2.6c-1,0-2.1,0.3-2.9,0.9c-1.9,1.2-4,5.9-4.9,8
		C31,18,29,13.3,27,12.1c-0.9-0.6-1.9-0.9-2.9-0.9c-1.9,0-3.6,1-4.7,2.6c-1.4,2.2-1,5.1,0.8,6.9H17c-0.6,0-1,0.4-1,1v8.5
		c0,0.6,0.4,1,1,1h0.6v18.2c0,0.6,0.4,1,1,1h9.8h7.3h9.8c0.6,0,1-0.4,1-1V31.2H47c0.6,0,1-0.4,1-1v-8.5C48,21.2,47.6,20.7,47,20.7z
		 M46,29.2h-0.6h-8.8v-6.5H46V29.2z M34.7,22.7v6.5h-5.3v-6.5H34.7z M37.9,13.8c0.6-0.4,1.2-0.5,1.9-0.5c1.2,0,2.3,0.6,3,1.6
		c1,1.6,0.5,3.8-1.1,4.8c-0.3,0.2-1.6,0.7-5.5,0.7c-0.8,0-1.5,0-2.1,0C35.1,17.8,36.8,14.5,37.9,13.8z M21.2,14.9
		c0.6-1,1.8-1.6,3-1.6c0.7,0,1.3,0.2,1.9,0.5c1.1,0.7,2.8,4,3.9,6.6c-0.6,0-1.3,0-2.1,0l0,0c-3.9,0-5.2-0.5-5.5-0.7
		C20.7,18.7,20.2,16.5,21.2,14.9z M18,22.7h9.3v6.5h-8.8H18V22.7z M19.6,31.2h7.8v17.2h-7.8C19.6,48.4,19.6,31.2,19.6,31.2z
		 M29.3,48.4V31.2h5.3v17.2H29.3z M44.4,48.4h-7.8V31.2h7.8V48.4z"/>
	<path class="st2" d="M28.7,25.6c0.3,0.7-1.1,2.2-0.7,2.6c0.6,0.6,2.1-1,2.6-0.7c0.7,0.3,0.7,2.3,1.4,2.3c0.7,0,0.8-2.1,1.4-2.3
		c0.7-0.3,2.2,1.1,2.6,0.7c0.6-0.6-1-2.1-0.7-2.6c0.3-0.7,2.3-0.7,2.3-1.4c0-0.7-2.1-0.8-2.3-1.4c-0.3-0.7,1.1-2.2,0.7-2.6
		c-0.6-0.6-2.1,1-2.6,0.7c-0.7-0.3-0.7-2.3-1.4-2.3s-0.8,2.1-1.4,2.3c-0.7,0.3-2.2-1.1-2.6-0.7c-0.6,0.6,1,2.1,0.7,2.6
		c-0.3,0.7-2.3,0.7-2.3,1.4C26.3,25,28.4,25,28.7,25.6z M44.4,16.8v-4.4c0-0.6-0.4-1.1-1.1-1.1H20.5c-0.6,0.1-1,0.6-1,1.1v4.4
		c-1.9,0-5.5,0.6-5.5,4.6c0,3,2.2,7.6,5.5,8.2c0.6,6.1,5,10.2,9,10.2h0.6v5.1h-2.9c-1.4,0-2.6,1.1-2.6,2.6v4.1
		c0,0.6,0.4,1.1,1.1,1.1h14.8c0.6,0,1.1-0.4,1.1-1.1v-4.1c0-1.4-1.1-2.6-2.6-2.6h-3v-5.1c5.5-0.3,9-5.1,9.5-10.1
		c3.3-0.4,5.5-5.1,5.5-8.2C49.9,17.3,46.4,16.8,44.4,16.8z M19.5,27.4c-1.8-0.7-3.5-3.7-3.5-6.1c0-1.4,0.7-2.3,3.5-2.5V27.4z
		 M37.8,46.9c0.3,0,0.6,0.3,0.6,0.6v3.2H25.6v-3.2c0-0.3,0.3-0.6,0.6-0.6H37.8z M31.2,44.9v-5.1h1.7v5.1H31.2z M42.3,28.3
		c0,3.9-2.5,9.4-7.9,9.4h-5.9c-3.3,0-7-3.9-7-9.4V13.5h20.9L42.3,28.3L42.3,28.3z M44.4,27.4v-8.6c2.8,0.1,3.3,1.1,3.3,2.6
		C47.9,23.8,46.2,26.9,44.4,27.4z"/>
	<g>
		<g class="st3">
			<path d="M14.9,37.5c-3.9,0-7.2-3.2-7.2-7.2s3.2-7.2,7.2-7.2s7.2,3.2,7.2,7.2C22.1,34.3,18.9,37.5,14.9,37.5z M14.9,26.8
				c-2,0-3.6,1.6-3.6,3.6s1.6,3.6,3.6,3.6s3.6-1.6,3.6-3.6S16.9,26.8,14.9,26.8z"/>
		</g>
		<g class="st3">
			<path d="M45.3,44.7h-3.6c0-4.9-4-8.9-8.9-8.9s-8.9,4-8.9,8.9h-3.6c0-6.9,5.6-12.5,12.5-12.5S45.3,37.8,45.3,44.7z"/>
		</g>
		<g class="st3">
			<path d="M50.7,37.5c-3.9,0-7.2-3.2-7.2-7.2s3.2-7.2,7.2-7.2c3.9,0,7.2,3.2,7.2,7.2S54.7,37.5,50.7,37.5z M50.7,26.8
				c-2,0-3.6,1.6-3.6,3.6s1.6,3.6,3.6,3.6s3.6-1.6,3.6-3.6S52.7,26.8,50.7,26.8z"/>
		</g>
		<g class="st3">
			<path d="M32.8,35.8c-4.9,0-8.9-4-8.9-8.9s4-8.9,8.9-8.9s8.9,4,8.9,8.9S37.7,35.8,32.8,35.8z M32.8,21.5c-3,0-5.4,2.4-5.4,5.4
				s2.4,5.4,5.4,5.4s5.4-2.4,5.4-5.4S35.8,21.5,32.8,21.5z"/>
		</g>
		<g class="st3">
			<path d="M45.3,44.7h-3.6v-1.8c0-4.9,4-8.9,8.9-8.9s8.9,4,8.9,8.9h-3.6c0-3-2.4-5.4-5.4-5.4s-5.4,2.4-5.4,5.4L45.3,44.7L45.3,44.7
				z"/>
		</g>
		<g class="st3">
			<path d="M23.9,44.7h-3.6v-1.8c0-3-2.4-5.4-5.4-5.4s-5.4,2.4-5.4,5.4H6C6,38,10,34,14.9,34s8.9,4,8.9,8.9L23.9,44.7L23.9,44.7z"/>
		</g>
	</g>
</g>
<g id="Layer_2">
	<g>
		<g>
			<path class="st4" d="M46,50.2H17.9c-0.5,0-0.8-0.4-0.8-0.8V34.1l-5.7,0c-0.3,0-0.6-0.2-0.8-0.5c-0.1-0.3-0.1-0.7,0.2-0.9
				l20.6-20.6c0.2-0.2,0.5-0.3,0.7-0.2c0.2,0,0.5,0.2,0.6,0.4l4.8,4.8v-1.5c0-0.5,0.4-0.8,0.8-0.8h4.8c0.5,0,0.8,0.4,0.8,0.8v8
				l9.2,9.2c0.2,0.2,0.3,0.6,0.2,0.9c-0.1,0.3-0.4,0.5-0.8,0.5c0,0,0,0,0,0l-5.7,0v15.3C46.8,49.8,46.5,50.2,46,50.2z M18.7,48.6
				h26.5V33.3c0-0.2,0.1-0.4,0.2-0.6c0.2-0.2,0.4-0.2,0.6-0.2c0,0,0,0,0,0l4.6,0l-8.1-8.1c-0.2-0.2-0.2-0.4-0.2-0.6v-7.5h-3.2V19
				c0,0.3-0.2,0.6-0.5,0.8c-0.3,0.1-0.7,0.1-0.9-0.2l-5.8-5.8L13.3,32.4l4.6,0c0.5,0,0.8,0.4,0.8,0.8C18.7,33.3,18.7,48.6,18.7,48.6
				z"/>
		</g>
	</g>
</g>
</svg>
