<svg id="Layer_1" data-name="Layer 1" xmlns="http://www.w3.org/2000/svg" viewBox="0 0 185.32 29.26"><defs><style>.cls-1{fill:#ec1e24;}.cls-2{fill:#fff;}.cls-3{fill:#020000;}</style></defs><title>logo-s-campaign</title><rect class="cls-1" width="29.26" height="29.26"/><path class="cls-2" d="M24.27,21.71c-.34-.09-.68-.17-1.07-.24L21,21.06h0l-8-1.47A3.51,3.51,0,0,1,13.9,18a4,4,0,0,1,3-1.1,4,4,0,0,1,3,1.1,3.26,3.26,0,0,1,.69,1h7.6V9.75H19v1.79a15.53,15.53,0,0,0-6.37-2.11l-.38,0h-.67c-.22,0-.62,0-1.06.06a6,6,0,0,0-1.13.23,5.49,5.49,0,0,0,.05,10.58,10.84,10.84,0,0,0,1.16.26l2.18.4h0l8,1.48A3.65,3.65,0,0,1,19.84,24a4,4,0,0,1-3,1.12,4,4,0,0,1-3-1.12,3.57,3.57,0,0,1-.66-.93H5.62v9.18h9.19V30.46a15.48,15.48,0,0,0,6.36,2.11l.39,0h.66c.22,0,.62,0,1.06-.06a6,6,0,0,0,1.13-.23,5.49,5.49,0,0,0-.14-10.6" transform="translate(-2.25 -6.37)"/><path class="cls-3" d="M55.85,25.88a15,15,0,0,1-1.66,2.21,9.71,9.71,0,0,1-2,1.7,10.12,10.12,0,0,1-2.51,1.08,11.21,11.21,0,0,1-3,.39,9.84,9.84,0,0,1-3.9-.78,10.33,10.33,0,0,1-3.18-2.11,9.61,9.61,0,0,1-2.15-3.12,9.74,9.74,0,0,1,0-7.64,9.61,9.61,0,0,1,2.15-3.12,10.51,10.51,0,0,1,3.18-2.11,9.84,9.84,0,0,1,3.9-.78,11.38,11.38,0,0,1,3.1.39,9.37,9.37,0,0,1,2.49,1.1,9.08,9.08,0,0,1,2,1.7A16,16,0,0,1,55.85,17a.49.49,0,0,1,0,.44.55.55,0,0,1-.31.34L51.9,19.22a.67.67,0,0,1-.52,0,.81.81,0,0,1-.39-.31,5.4,5.4,0,0,0-1.82-1.83,4.89,4.89,0,0,0-2.58-.64,4.21,4.21,0,0,0-1.85.42A5.14,5.14,0,0,0,43.21,18a5,5,0,0,0-1,1.6,5.12,5.12,0,0,0,0,3.77,4.87,4.87,0,0,0,1,1.57A5.29,5.29,0,0,0,44.74,26a4.2,4.2,0,0,0,1.85.41,4.94,4.94,0,0,0,2.59-.69A5.2,5.2,0,0,0,51,24a.9.9,0,0,1,.38-.31.65.65,0,0,1,.51,0l3.69,1.46a.53.53,0,0,1,.26.78Z" transform="translate(-2.25 -6.37)"/><path class="cls-3" d="M62.61,12.49a1,1,0,0,1,.35-.4.88.88,0,0,1,.53-.17h3.64a.82.82,0,0,1,.51.17.89.89,0,0,1,.35.4l7.59,17.68a.54.54,0,0,1,0,.49.58.58,0,0,1-.56.26H70.54a.86.86,0,0,1-.53-.17,1.11,1.11,0,0,1-.38-.4l-.7-1.56a1.11,1.11,0,0,0-.38-.4.89.89,0,0,0-.51-.17H62.56a.93.93,0,0,0-.53.17.91.91,0,0,0-.36.4L61,30.35a1,1,0,0,1-.35.4.87.87,0,0,1-.51.17H55.62a1,1,0,0,1-.28-.05.53.53,0,0,1-.23-.16.49.49,0,0,1-.12-.26.66.66,0,0,1,.08-.36ZM64.15,23.8h2.31a.45.45,0,0,0,.38-.17.37.37,0,0,0,0-.4c-.17-.44-.38-.94-.62-1.52l-.68-1.63c-.07-.16-.14-.23-.23-.23s-.17.07-.24.23l-1.3,3.15a.46.46,0,0,0,0,.4A.44.44,0,0,0,64.15,23.8Z" transform="translate(-2.25 -6.37)"/><path class="cls-3" d="M98.62,12.54V30.3a.61.61,0,0,1-.62.62H94.09a.61.61,0,0,1-.62-.62V21.93c0-.18-.08-.27-.23-.29a.39.39,0,0,0-.39.18l-4.38,7.05a.46.46,0,0,1-.42.21.51.51,0,0,1-.44-.21l-4.38-7a.36.36,0,0,0-.37-.18c-.15,0-.23.11-.23.29V30.3a.61.61,0,0,1-.62.62H78.1a.61.61,0,0,1-.62-.62V12.54a.61.61,0,0,1,.62-.62h3.63a1.16,1.16,0,0,1,.54.15,1.07,1.07,0,0,1,.41.37l5,7.33a.44.44,0,0,0,.36.21.39.39,0,0,0,.34-.21l5-7.33a1.49,1.49,0,0,1,.44-.37,1.17,1.17,0,0,1,.55-.15H98a.61.61,0,0,1,.62.62Z" transform="translate(-2.25 -6.37)"/><path class="cls-3" d="M110.77,25.8H108.5a.61.61,0,0,0-.62.62V30.3a.61.61,0,0,1-.62.62h-3.91a.61.61,0,0,1-.62-.62V12.51a.61.61,0,0,1,.62-.62h8a7,7,0,0,1,5,2,7.68,7.68,0,0,1,1.51,2.24,6.76,6.76,0,0,1,.55,2.73,7.81,7.81,0,0,1-.46,2.72,5.83,5.83,0,0,1-1.43,2.18,6.7,6.7,0,0,1-2.37,1.46A9.52,9.52,0,0,1,110.77,25.8Zm.19-9.13H108.5a.58.58,0,0,0-.44.19.59.59,0,0,0-.18.44v3a.59.59,0,0,0,.18.44.6.6,0,0,0,.44.18h2.8a1.68,1.68,0,0,0,1.45-.63,2.42,2.42,0,0,0,.46-1.43,2.33,2.33,0,0,0-.15-.82,2.08,2.08,0,0,0-.43-.71,2.24,2.24,0,0,0-1.67-.7Z" transform="translate(-2.25 -6.37)"/><path class="cls-3" d="M124.36,12.49a1,1,0,0,1,.35-.4.89.89,0,0,1,.54-.17h3.63a.82.82,0,0,1,.51.17.89.89,0,0,1,.35.4l7.59,17.68a.54.54,0,0,1,0,.49.58.58,0,0,1-.56.26h-4.45a.86.86,0,0,1-.53-.17,1.11,1.11,0,0,1-.38-.4l-.7-1.56a1.11,1.11,0,0,0-.38-.4.89.89,0,0,0-.51-.17h-5.48a.93.93,0,0,0-.53.17.91.91,0,0,0-.36.4l-.72,1.56a1,1,0,0,1-.35.4.87.87,0,0,1-.51.17h-4.47a1,1,0,0,1-.28-.05.53.53,0,0,1-.23-.16.49.49,0,0,1-.12-.26.66.66,0,0,1,.08-.36Zm1.53,11.31h2.32a.45.45,0,0,0,.38-.17.37.37,0,0,0,0-.4c-.17-.44-.38-.94-.62-1.52l-.68-1.63c-.07-.16-.15-.23-.23-.23s-.17.07-.24.23l-1.3,3.15a.46.46,0,0,0,0,.4A.43.43,0,0,0,125.89,23.8Z" transform="translate(-2.25 -6.37)"/><path class="cls-3" d="M143.89,30.92H140a.58.58,0,0,1-.45-.18.64.64,0,0,1-.17-.44V12.54a.64.64,0,0,1,.17-.44.58.58,0,0,1,.45-.18h3.91a.61.61,0,0,1,.62.62V30.3a.61.61,0,0,1-.62.62Z" transform="translate(-2.25 -6.37)"/><path class="cls-3" d="M157.15,31.26a9.77,9.77,0,0,1-3.9-.78,10.26,10.26,0,0,1-3.19-2.11,9.8,9.8,0,0,1-2.16-3.12,9.63,9.63,0,0,1,0-7.64,10,10,0,0,1,2.16-3.13,10.28,10.28,0,0,1,3.19-2.12,9.77,9.77,0,0,1,3.9-.78,10.18,10.18,0,0,1,5,1.17A9.48,9.48,0,0,1,165.57,16a.61.61,0,0,1,.07.48.65.65,0,0,1-.28.41l-3.12,2a.63.63,0,0,1-.47.09.73.73,0,0,1-.44-.25,7,7,0,0,0-1.8-1.58,4.55,4.55,0,0,0-2.38-.6,4.35,4.35,0,0,0-1.86.4,5.05,5.05,0,0,0-2.55,2.65,4.8,4.8,0,0,0-.38,1.86,4.7,4.7,0,0,0,.38,1.87,4.83,4.83,0,0,0,1,1.55,5.15,5.15,0,0,0,1.52,1.07,4.35,4.35,0,0,0,1.86.4A5.51,5.51,0,0,0,159.1,26a3.19,3.19,0,0,0,1.53-1.2.34.34,0,0,0,0-.38.4.4,0,0,0-.37-.17h-3a.61.61,0,0,1-.62-.62V20.5a.63.63,0,0,1,.18-.45.6.6,0,0,1,.44-.18h8.95a.68.68,0,0,1,.45.17.63.63,0,0,1,.22.46,8.32,8.32,0,0,1,.05,1.08,11.88,11.88,0,0,1-.07,1.31,8.73,8.73,0,0,1-1,3.33,9.32,9.32,0,0,1-2.14,2.65,10.12,10.12,0,0,1-3,1.75A9.92,9.92,0,0,1,157.15,31.26Z" transform="translate(-2.25 -6.37)"/><path class="cls-3" d="M187.57,12.51V30.3a.58.58,0,0,1-.19.44.59.59,0,0,1-.44.18H183.1a1.16,1.16,0,0,1-.54-.15,1.37,1.37,0,0,1-.44-.37l-6.77-9.54a.34.34,0,0,0-.33-.17c-.11,0-.17.13-.17.3V30.3a.61.61,0,0,1-.62.62h-3.9a.6.6,0,0,1-.44-.18.61.61,0,0,1-.19-.44V12.51a.58.58,0,0,1,.19-.44.6.6,0,0,1,.44-.18h3.9a1.27,1.27,0,0,1,.54.14,1.5,1.5,0,0,1,.45.35L182,21.93c.1.14.21.2.32.18s.17-.11.17-.29V12.51a.61.61,0,0,1,.62-.62h3.85a.59.59,0,0,1,.44.18A.58.58,0,0,1,187.57,12.51Z" transform="translate(-2.25 -6.37)"/></svg>