<svg id="Layer_1" data-name="Layer 1" xmlns="http://www.w3.org/2000/svg" viewBox="0 0 185.32 29.26"><defs><style>.cls-1{fill:#fff;}</style></defs><title>logo-s-campaign-white</title><path class="cls-1" d="M2.25,35.63H31.51V6.37H2.25ZM9.34,9.69a6,6,0,0,1,1.13-.23c.44,0,.84-.06,1.06-.06h.67l.38,0A15.53,15.53,0,0,1,19,11.54V9.75h9.18v9.18h-7.6a3.54,3.54,0,0,0-.69-1,4.08,4.08,0,0,0-3-1.09,4,4,0,0,0-3,1.09A3.6,3.6,0,0,0,13,19.59l8,1.47h0l2.24.41c.39.07.73.15,1.08.24a5.49,5.49,0,0,1,.13,10.6,6,6,0,0,1-1.13.23c-.44,0-.84.06-1.06.06h-.66l-.39,0a15.48,15.48,0,0,1-6.36-2.11v1.79H5.62V23.07h7.61a3.57,3.57,0,0,0,.66.93,4,4,0,0,0,3,1.12,4,4,0,0,0,3-1.12,3.65,3.65,0,0,0,.93-1.59l-8-1.48h0l-2.18-.4c-.07,0-.55-.1-1.16-.26A5.49,5.49,0,0,1,9.34,9.69Z" transform="translate(-2.25 -6.37)"/><path class="cls-1" d="M55.9,25.42a.54.54,0,0,0-.31-.32L51.9,23.64a.65.65,0,0,0-.51,0A.9.9,0,0,0,51,24a5.2,5.2,0,0,1-1.83,1.78,4.94,4.94,0,0,1-2.59.69A4.2,4.2,0,0,1,44.74,26a5.29,5.29,0,0,1-1.53-1.1,4.87,4.87,0,0,1-1-1.57,5.12,5.12,0,0,1,1-5.37,5.14,5.14,0,0,1,1.53-1.11,4.21,4.21,0,0,1,1.85-.42,4.89,4.89,0,0,1,2.58.64A5.4,5.4,0,0,1,51,18.91a.81.81,0,0,0,.39.31.67.67,0,0,0,.52,0l3.69-1.45a.55.55,0,0,0,.31-.34.49.49,0,0,0,0-.44,16,16,0,0,0-1.65-2.2,9.08,9.08,0,0,0-2-1.7A9.37,9.37,0,0,0,49.69,12a11.38,11.38,0,0,0-3.1-.39,9.84,9.84,0,0,0-3.9.78,10.51,10.51,0,0,0-3.18,2.11,9.61,9.61,0,0,0-2.15,3.12,9.74,9.74,0,0,0,0,7.64,9.61,9.61,0,0,0,2.15,3.12,10.33,10.33,0,0,0,3.18,2.11,9.84,9.84,0,0,0,3.9.78,11.21,11.21,0,0,0,3-.39,10.12,10.12,0,0,0,2.51-1.08,9.71,9.71,0,0,0,2-1.7,15,15,0,0,0,1.66-2.21A.54.54,0,0,0,55.9,25.42Z" transform="translate(-2.25 -6.37)"/><path class="cls-1" d="M68,12.49a.89.89,0,0,0-.35-.4.82.82,0,0,0-.51-.17H63.49a.88.88,0,0,0-.53.17,1,1,0,0,0-.35.4l-7.54,17.6a.66.66,0,0,0-.08.36.49.49,0,0,0,.12.26.53.53,0,0,0,.23.16,1,1,0,0,0,.28.05h4.47a.87.87,0,0,0,.51-.17,1,1,0,0,0,.35-.4l.72-1.56a.91.91,0,0,1,.36-.4.93.93,0,0,1,.53-.17H68a.89.89,0,0,1,.51.17,1.11,1.11,0,0,1,.38.4l.7,1.56a1.11,1.11,0,0,0,.38.4.86.86,0,0,0,.53.17H75a.58.58,0,0,0,.56-.26.54.54,0,0,0,0-.49ZM66.84,23.63a.45.45,0,0,1-.38.17H64.15a.44.44,0,0,1-.4-.17.46.46,0,0,1,0-.4l1.3-3.15c.07-.16.15-.23.24-.23s.16.07.23.23l.68,1.63c.24.58.45,1.08.62,1.52A.37.37,0,0,1,66.84,23.63Z" transform="translate(-2.25 -6.37)"/><path class="cls-1" d="M98,11.92H94.38a1.17,1.17,0,0,0-.55.15,1.49,1.49,0,0,0-.44.37l-5,7.33a.39.39,0,0,1-.34.21.44.44,0,0,1-.36-.21l-5-7.33a1.07,1.07,0,0,0-.41-.37,1.16,1.16,0,0,0-.54-.15H78.1a.61.61,0,0,0-.62.62V30.3a.61.61,0,0,0,.62.62H82a.61.61,0,0,0,.62-.62V21.93c0-.18.08-.27.23-.29a.36.36,0,0,1,.37.18l4.38,7.05a.51.51,0,0,0,.44.21.46.46,0,0,0,.42-.21l4.38-7a.39.39,0,0,1,.39-.18c.15,0,.23.11.23.29V30.3a.61.61,0,0,0,.62.62H98a.61.61,0,0,0,.62-.62V12.54a.61.61,0,0,0-.62-.62Z" transform="translate(-2.25 -6.37)"/><path class="cls-1" d="M118.35,18.91a6.76,6.76,0,0,0-.55-2.73,7.68,7.68,0,0,0-1.51-2.24,7,7,0,0,0-5-2h-8a.61.61,0,0,0-.62.62V30.3a.61.61,0,0,0,.62.62h3.91a.61.61,0,0,0,.62-.62V26.42a.61.61,0,0,1,.62-.62h2.27a9.52,9.52,0,0,0,3.32-.53,6.7,6.7,0,0,0,2.37-1.46,5.83,5.83,0,0,0,1.43-2.18A7.81,7.81,0,0,0,118.35,18.91Zm-5.6,1.42a1.68,1.68,0,0,1-1.45.63h-2.8a.6.6,0,0,1-.44-.18.59.59,0,0,1-.18-.44v-3a.59.59,0,0,1,.18-.44.58.58,0,0,1,.44-.19H111a2.24,2.24,0,0,1,1.67.7,2.08,2.08,0,0,1,.43.71,2.33,2.33,0,0,1,.15.82A2.42,2.42,0,0,1,112.75,20.33Z" transform="translate(-2.25 -6.37)"/><path class="cls-1" d="M129.74,12.49a.89.89,0,0,0-.35-.4.82.82,0,0,0-.51-.17h-3.63a.89.89,0,0,0-.54.17,1,1,0,0,0-.35.4l-7.54,17.6a.66.66,0,0,0-.08.36.49.49,0,0,0,.12.26.53.53,0,0,0,.23.16,1,1,0,0,0,.28.05h4.47a.87.87,0,0,0,.51-.17,1,1,0,0,0,.35-.4l.72-1.56a.91.91,0,0,1,.36-.4.93.93,0,0,1,.53-.17h5.48a.89.89,0,0,1,.51.17,1.11,1.11,0,0,1,.38.4l.7,1.56a1.11,1.11,0,0,0,.38.4.86.86,0,0,0,.53.17h4.45a.58.58,0,0,0,.56-.26.54.54,0,0,0,0-.49Zm-1.15,11.14a.45.45,0,0,1-.38.17h-2.32a.43.43,0,0,1-.39-.17.46.46,0,0,1,0-.4l1.3-3.15c.07-.16.15-.23.24-.23s.16.07.23.23l.68,1.63c.24.58.45,1.08.62,1.52A.37.37,0,0,1,128.59,23.63Z" transform="translate(-2.25 -6.37)"/><path class="cls-1" d="M143.89,11.92H140a.58.58,0,0,0-.45.18.64.64,0,0,0-.17.44V30.3a.64.64,0,0,0,.17.44.58.58,0,0,0,.45.18h3.91a.61.61,0,0,0,.62-.62V12.54a.61.61,0,0,0-.62-.62Z" transform="translate(-2.25 -6.37)"/><path class="cls-1" d="M166.7,20a.68.68,0,0,0-.45-.17H157.3a.6.6,0,0,0-.44.18.63.63,0,0,0-.18.45v3.09a.61.61,0,0,0,.62.62h3a.4.4,0,0,1,.37.17.34.34,0,0,1,0,.38A3.19,3.19,0,0,1,159.1,26a5.51,5.51,0,0,1-1.95.36,4.35,4.35,0,0,1-1.86-.4,5.15,5.15,0,0,1-1.52-1.07,4.83,4.83,0,0,1-1-1.55,4.7,4.7,0,0,1-.38-1.87,4.8,4.8,0,0,1,.38-1.86,5.05,5.05,0,0,1,2.55-2.65,4.35,4.35,0,0,1,1.86-.4,4.55,4.55,0,0,1,2.38.6,7,7,0,0,1,1.8,1.58.73.73,0,0,0,.44.25.63.63,0,0,0,.47-.09l3.12-2a.65.65,0,0,0,.28-.41.61.61,0,0,0-.07-.48,9.48,9.48,0,0,0-3.44-3.22,10.18,10.18,0,0,0-5-1.17,9.77,9.77,0,0,0-3.9.78,10.28,10.28,0,0,0-3.19,2.12,10,10,0,0,0-2.16,3.13,9.63,9.63,0,0,0,0,7.64,9.8,9.8,0,0,0,2.16,3.12,10.26,10.26,0,0,0,3.19,2.11,9.77,9.77,0,0,0,3.9.78,9.92,9.92,0,0,0,3.58-.64,10.12,10.12,0,0,0,3-1.75,9.32,9.32,0,0,0,2.14-2.65,8.73,8.73,0,0,0,1-3.33,11.88,11.88,0,0,0,.07-1.31,8.32,8.32,0,0,0-.05-1.08A.63.63,0,0,0,166.7,20Z" transform="translate(-2.25 -6.37)"/><path class="cls-1" d="M187.38,12.07a.59.59,0,0,0-.44-.18h-3.85a.61.61,0,0,0-.62.62v9.31c0,.18-.06.27-.17.29s-.22,0-.32-.18l-6.76-9.55a1.5,1.5,0,0,0-.45-.35,1.27,1.27,0,0,0-.54-.14h-3.9a.6.6,0,0,0-.44.18.58.58,0,0,0-.19.44V30.3a.61.61,0,0,0,.19.44.6.6,0,0,0,.44.18h3.9a.61.61,0,0,0,.62-.62V21c0-.17.06-.27.17-.3a.34.34,0,0,1,.33.17l6.77,9.54a1.37,1.37,0,0,0,.44.37,1.16,1.16,0,0,0,.54.15h3.84a.59.59,0,0,0,.44-.18.58.58,0,0,0,.19-.44V12.51A.58.58,0,0,0,187.38,12.07Z" transform="translate(-2.25 -6.37)"/></svg>